<?xml version="1.0" encoding="UTF-8" standalone="no"?>
<svg
   fill="none"
   version="1.1"
   width="436.005859375"
   height="276"
   viewBox="0 0 436.005859375 276"
   id="svg9"
   sodipodi:docname="Title.svg"
   inkscape:version="1.4.2 (f4327f4, 2025-05-13)"
   xmlns:inkscape="http://www.inkscape.org/namespaces/inkscape"
   xmlns:sodipodi="http://sodipodi.sourceforge.net/DTD/sodipodi-0.dtd"
   xmlns="http://www.w3.org/2000/svg"
   xmlns:svg="http://www.w3.org/2000/svg">
  <defs
     id="defs9">
    <rect
       x="31.122677"
       y="94.052045"
       width="216.49071"
       height="64.639405"
       id="rect11" />
  </defs>
  <sodipodi:namedview
     id="namedview9"
     pagecolor="#ffffff"
     bordercolor="#000000"
     borderopacity="0.25"
     inkscape:showpageshadow="2"
     inkscape:pageopacity="0.0"
     inkscape:pagecheckerboard="0"
     inkscape:deskcolor="#d1d1d1"
     inkscape:zoom="2.923913"
     inkscape:cx="232.39405"
     inkscape:cy="138"
     inkscape:window-width="1920"
     inkscape:window-height="1009"
     inkscape:window-x="-8"
     inkscape:window-y="-8"
     inkscape:window-maximized="1"
     inkscape:current-layer="svg9" />
  <g
     id="g9">
    <g
       id="g8">
      <g
         id="g1">
        <path
           d="M23.237859375,16.439999Q29.445860375,16.439999,34.021862375,18.615997Q38.597862375,20.791996,41.093860375,24.855999Q43.589862375,28.919998,43.589862375,34.424Q43.589862375,39.863998,41.189861375,43.928001Q38.789859375,47.991997,34.341861375,50.167999Q29.893859375,52.343998,23.877861375,52.343998L16.005859375,52.343998L16.005859375,68.279999L4.101859575,68.279999L4.101859575,16.439999L23.237859375,16.439999ZM21.445860375,41.591999Q26.053859375,41.591999,28.741861375,39.671997Q31.429861375,37.751999,31.429861375,34.424Q31.429861375,31.095997,28.741861375,29.143997Q26.053859375,27.191998,21.445860375,27.191998L16.005859375,27.191998L16.005859375,41.591999L21.445860375,41.591999ZM77.893867375,68.279999L68.997863375,50.68L62.213863375,50.68L62.213863375,68.279999L50.309864375,68.279999L50.309864375,16.439999L68.741867375,16.439999Q75.141861375,16.439999,79.749862375,18.519997Q84.357864375,20.599998,86.789863375,24.439999Q89.221862375,28.279999,89.221862375,33.528Q89.221862375,38.647999,86.981865375,42.456001Q84.741867375,46.264,80.581863375,48.375999L91.845871375,68.279999L77.893867375,68.279999ZM62.213863375,27.191998L62.213863375,39.863998L67.013862375,39.863998Q71.877868375,39.863998,74.469864375,38.231998Q77.061866375,36.599998,77.061866375,33.528Q77.061866375,30.455997,74.469864375,28.823997Q71.877868375,27.191998,67.013862375,27.191998L62.213863375,27.191998ZM118.469869375,69.176003Q111.173869375,69.176003,105.765869375,65.912003Q100.357869375,62.647999,97.445869375,56.599998Q94.533874375,50.552002,94.533874375,42.360001Q94.533874375,34.167999,97.445869375,28.119999Q100.357869375,22.071999,105.765869375,18.807999Q111.173869375,15.543999,118.469869375,15.543999Q125.765869375,15.543999,131.173869375,18.807999Q136.581879375,22.071999,139.493869375,28.119999Q142.405869375,34.167999,142.405869375,42.360001Q142.405869375,50.552002,139.493869375,56.599998Q136.581879375,62.647999,131.173869375,65.912003Q125.765869375,69.176003,118.469869375,69.176003ZM118.469869375,58.040001Q123.909869375,58.040001,127.077869375,53.815998Q130.245879375,49.591999,130.245879375,42.360001Q130.245879375,35.127998,127.077869375,30.903999Q123.909869375,26.679996,118.469869375,26.679996Q113.029879375,26.679996,109.861869375,30.903999Q106.693869375,35.127998,106.693869375,42.360001Q106.693869375,49.591999,109.861869375,53.815998Q113.029879375,58.040001,118.469869375,58.040001ZM160.709869375,68.279999L149.189869375,68.279999L149.189869375,16.439999L159.749879375,16.439999L176.005879375,40.759998L176.389879375,40.759998L192.645869375,16.439999L203.205869375,16.439999L203.205869375,68.279999L191.685879375,68.279999L191.685879375,38.519997L191.301879375,38.519997L180.677869375,53.751999L171.717869375,53.751999L161.093869375,38.776001L160.709869375,38.776001L160.709869375,68.279999ZM230.533879375,16.439999Q236.741879375,16.439999,241.317889375,18.615997Q245.893889375,20.791996,248.389879375,24.855999Q250.885879375,28.919998,250.885879375,34.424Q250.885879375,39.863998,248.485889375,43.928001Q246.085879375,47.991997,241.637879375,50.167999Q237.189879375,52.343998,231.173889375,52.343998L223.301879375,52.343998L223.301879375,68.279999L211.397869375,68.279999L211.397869375,16.439999L230.533879375,16.439999ZM228.741879375,41.591999Q233.349879375,41.591999,236.037889375,39.671997Q238.725879375,37.751999,238.725879375,34.424Q238.725879375,31.095997,236.037889375,29.143997Q233.349879375,27.191998,228.741879375,27.191998L223.301879375,27.191998L223.301879375,41.591999L228.741879375,41.591999ZM279.813899375,68.279999L267.909879375,68.279999L267.909879375,27.575996L254.021899375,27.575996L254.021899375,16.439999L293.701899375,16.439999L293.701899375,27.575996L279.813899375,27.575996L279.813899375,68.279999Z"
           fill="#292929"
           fill-opacity="1"
           id="path1" />
      </g>
      <g
         id="g6">
        <g
           id="g2">
          <path
             id="path2"
             d="m 140.29297,97.216797 -7.42383,5.248043 c 3.11467,4.05334 5.58917,7.50853 7.42383,10.36719 l 7.68164,-5.24805 c -0.42667,-0.59733 -2.56038,-3.47795 -6.40039,-8.640621 z M 8.5175781,99.007812 v 8.705078 H 3.71875 v 9.21484 h 4.7988281 v 9.53711 c -2.688,1.06667 -4.671172,1.83341 -5.9511719,2.30274 l 0.9589844,9.79297 c 1.92,-0.85334 3.5841875,-1.55862 4.9921875,-2.11328 v 8.96093 c 0,0.68267 -0.160469,1.17399 -0.4804687,1.47266 -0.32,0.29866 -0.9064322,0.44726 -1.7597656,0.44726 H 3.1425781 l 1.5351563,9.59961 h 4.2890625 c 2.4320011,0 4.2329171,-0.26549 5.4062501,-0.79882 1.173333,-0.53333 1.973723,-1.48428 2.400391,-2.84961 l 5.3125,4.09765 c 2.730665,-2.60266 4.886177,-5.22771 6.464843,-7.87304 1.792001,2.38933 3.945557,4.08522 6.462891,5.08789 2.517331,1.00266 5.675321,1.5039 9.472656,1.5039 h 15.103516 l 1.728515,-7.74414 H 45.830078 v -3.58398 h 13.183594 v -6.28906 c -0.0528,-0.002 -0.105405,-0.002 -0.158203,-0.004 -2.926927,-0.0872 -5.85561,-0.1565 -8.783203,-0.2168 -1.017959,-0.021 -1.724285,-0.34425 -2.121094,-0.78515 h -2.121094 v -3.20118 H 60.806641 V 126.5918 H 21.638672 v 7.67968 H 37.0625 v 12.86524 c -1.024003,-0.512 -1.963074,-1.2272 -2.816406,-2.14453 -0.853333,-0.91734 -1.685426,-2.10207 -2.496094,-3.55274 0.341333,-1.36533 0.703891,-3.1999 1.087891,-5.5039 l -8.384766,-0.63867 c -0.426667,3.37066 -1.139911,6.11065 -2.142578,8.22265 -1.002667,2.112 -2.698558,4.34083 -5.087891,6.6875 v -0.57422 -16.76953 l 3.710938,-1.53516 -0.320313,-5.88867 -0.191406,-3.90429 -3.199219,1.4082 v -6.01563 h 4.160156 v -9.21484 h -4.160156 v -8.705078 z m 15.6171879,0.06445 V 124.48047 H 57.798828 V 99.072266 Z m 48.382812,0.382812 v 9.857422 h 48.191402 v -9.857422 z m 77.121092,0.06445 v 8.832029 h 27.64649 v 36.80078 c 0,1.36534 -0.19218,2.30441 -0.57618,2.81641 -0.384,0.512 -1.30128,0.76758 -2.75195,0.76758 h -6.46289 l 1.79102,8.12695 h 8.1289 c 2.432,0 4.30819,-0.27736 5.63086,-0.83203 1.32266,-0.55467 2.27361,-1.47195 2.84961,-2.75195 0.576,-1.28 0.86328,-3.071 0.86328,-5.375 V 99.519531 Z M 32.708984,106.04883 h 16.513672 v 2.6875 H 32.708984 Z m 115.712896,6.08008 v 8.44726 h 26.6875 v -8.44726 z m -115.712896,2.49414 h 16.513672 v 2.8164 H 32.708984 Z m 35.201172,1.47265 v 9.79297 H 91.71875 v 8.93945 c 3.341927,-0.16127 6.681348,-0.35996 10.01953,-0.60351 0.1372,-0.01 0.27492,-0.0195 0.41211,-0.0293 v -8.30664 h 22.91211 v -9.79297 z m 63.039064,0.64063 v 9.34375 h 4.54492 v 5.33008 c 2.97528,-0.27889 5.94968,-0.56375 8.92383,-0.85547 0.0335,-0.003 0.0665,-0.006 0.0996,-0.01 v -13.80859 z m 19.00781,7.74414 v 5.51562 c 2.35021,-0.23744 3.67706,-0.37526 8.25195,-0.85937 3.82961,-0.40525 7.68557,-0.74885 11.47266,-1.46875 0.20788,-0.0395 0.40643,-0.0621 0.59375,-0.0723 2.80979,-0.15291 3.26494,2.81022 0.14844,3.41211 -3.91068,0.75527 -7.89506,1.1103 -11.85156,1.5293 -4.70439,0.49819 -6.02834,0.6354 -8.61524,0.89648 v 14.53516 h 23.36133 v -23.48828 z m -71.039061,3.45508 c -1.140575,2.35594 -2.585095,4.83025 -4.332031,7.42383 3.737004,-0.0594 7.474606,-0.15 11.208984,-0.28321 0.508848,-0.93942 0.989643,-1.86969 1.443359,-2.78906 z M 111.94141,128 l -7.67969,5.43945 c 0.13747,0.1833 0.27927,0.37329 0.42578,0.57032 3.79302,-0.27973 7.58457,-0.57583 11.375,-0.88672 -1.59792,-2.03959 -2.97162,-3.74693 -4.12109,-5.12305 z m 46.46484,4.60742 h 6.5918 v 7.36133 h -6.5918 z m -13.88867,1.37305 c -3.00738,0.2947 -6.01481,0.58366 -9.02344,0.86523 v 8.38672 c 0,1.792 -0.0634,3.07184 -0.19141,3.83985 -0.128,0.768 -0.44893,1.5149 -0.96093,2.24023 l 5.88867,6.20703 8.89453,-8.12695 -1.2793,-10.68946 -3.32812,3.13672 z m -25.95313,2.36914 c -3.83095,0.32003 -7.66264,0.62505 -11.49609,0.91406 2.61656,3.62128 6.09646,8.55491 10.44141,14.80078 l 8.1914,-6.27148 c -2.67428,-3.58428 -5.05253,-6.7321 -7.13672,-9.44336 z m -16.41406,1.27539 c -0.0558,0.004 -0.11215,0.008 -0.16797,0.0117 -3.419293,0.24943 -6.840167,0.45141 -10.26367,0.61523 v 5.10743 c 0,0.98133 -0.07527,1.68661 -0.224609,2.11328 -0.149333,0.42666 -0.448487,0.71394 -0.896485,0.86328 -0.448003,0.14933 -1.204819,0.22461 -2.271484,0.22461 h -6.591797 l 1.919922,10.17578 h 8.511719 c 2.517334,0 4.500508,-0.28924 5.951172,-0.86524 1.450666,-0.576 2.486802,-1.52499 3.105472,-2.84765 0.61866,-1.32267 0.92773,-3.13545 0.92773,-5.43946 z m -18.345702,0.93945 c -3.076761,0.0971 -6.154252,0.16809 -9.232422,0.2168 -0.808749,0.012 -1.61725,0.0168 -2.425782,0.0156 -1.705728,2.28881 -3.630831,4.66302 -5.773437,7.12304 l 7.9375,6.01563 c 2.346664,-2.73067 4.68248,-5.86687 7.007812,-9.40821 0.879362,-1.3392 1.707646,-2.66029 2.486329,-3.96289 z" />
        </g>
        <g
           id="g4">
          <path
             d="M25.925861375,221.83999599999999Q16.773861375,221.83999599999999,12.613860375,218.32Q8.453859375,214.799999,8.453859375,207.05599999999998L8.453859375,203.919998Q8.453859375,201.487999,7.781859875,200.271999Q7.109859975,199.05599999999998,5.509859575,198.608002Q3.909859675,198.16,0.773859385,198.16L0.773859385,187.919998Q3.909859675,187.919998,5.509859575,187.472Q7.109859975,187.023998,7.781859875,185.807999Q8.453859375,184.591999,8.453859375,182.16L8.453859375,179.023998Q8.453859375,171.279999,12.613860375,167.759998Q16.773861375,164.239998,25.925861375,164.239998L25.925861375,173.83999599999999Q22.405861375,173.83999599999999,20.805860375,175.119999Q19.205860375,176.399998,19.205860375,179.151997L19.205860375,182.799999Q19.205860375,186,18.629860375,187.855999Q18.053859375,189.711998,17.029859375,190.736Q16.005859375,191.759998,14.021860375,192.848L14.021860375,193.231998Q15.941860375,194.38399900000002,16.997860375,195.407997Q18.053859375,196.431999,18.629860375,198.28799800000002Q19.205860375,200.143997,19.205860375,203.279999L19.205860375,206.928001Q19.205860375,209.68,20.805860375,210.959999Q22.405861375,212.239998,25.925861375,212.239998L25.925861375,221.83999599999999ZM79.429863375,212.94400000000002Q82.629860375,214.032001,87.557861375,215.888L84.549865375,223.37599899999998Q78.597862375,220.688004,69.445861375,217.360001L71.109863375,212.94400000000002L63.045860375,212.94400000000002L65.157859375,217.04000100000002Q62.405861375,218.512001,59.301864375,219.760002Q56.197860375,221.008003,51.909862375,222.54399899999999L49.477859375,223.440002L46.533859375,216.27200299999998Q51.717865375,214.863998,56.261863375,212.94400000000002L47.557861375,212.94400000000002L47.557861375,212.112Q43.653862375,213.200001,39.333862375,214.48Q35.013862375,215.760002,32.197860375,216.592003L30.789861375,217.04000100000002L29.253860375,207.05599999999998Q30.661861375,206.863998,34.757862375,205.711998L34.757862375,186.639999L30.149860375,186.639999L30.149860375,177.679996L34.757862375,177.679996L34.757862375,163.535999L43.653862375,163.535999L43.653862375,177.679996L48.005859375,177.679996L48.005859375,186.639999L43.653862375,186.639999L43.653862375,203.152Q47.301864375,202.063999,47.621864375,201.935997L48.069862375,206.223999L50.885864375,206.223999L50.885864375,175.311996L62.725860375,175.311996L62.725860375,172.943996L48.325863375,172.943996L48.325863375,165.83999599999999L62.725860375,165.83999599999999L62.725860375,162.959999L71.877861375,162.959999L71.877861375,165.83999599999999L87.045860375,165.83999599999999L87.045860375,172.943996L71.877861375,172.943996L71.877861375,175.311996L84.101860375,175.311996L84.101860375,206.223999L87.429863375,206.223999L87.429863375,212.94400000000002L79.429863375,212.94400000000002ZM75.781860375,183.695999L75.781860375,181.264L59.205864375,181.264L59.205864375,183.695999L75.781860375,183.695999ZM59.205864375,191.183998L75.781860375,191.183998L75.781860375,188.751999L59.205864375,188.751999L59.205864375,191.183998ZM75.781860375,198.671997L75.781860375,196.239998L59.205864375,196.239998L59.205864375,198.671997L75.781860375,198.671997ZM75.781860375,203.855999L59.205864375,203.855999L59.205864375,206.223999L75.781860375,206.223999L75.781860375,203.855999ZM104.773869375,177.935997L104.773869375,182.863998L95.109863375,182.863998L95.109863375,168.848L117.765859375,168.848Q117.253859375,166.735996,116.741869375,164.879997L127.685869375,162.895996L129.285859375,168.848L150.469859375,168.848L150.469859375,182.927998L140.741869375,182.927998L140.741869375,177.935997L104.773869375,177.935997ZM127.813869375,203.599998L127.813869375,212.048L150.341859375,212.048L150.341859375,221.264L94.981865375,221.264L94.981865375,212.048L117.637859375,212.048L117.637859375,203.599998L102.277859375,203.599998L102.277859375,196.879997L97.989860375,199.05599999999998L94.021865375,190.48Q99.269867375,188.304001,105.061869375,185.00799899999998Q110.853869375,181.711998,115.077869375,178.575996L120.069859375,186.639999Q113.861859375,190.671997,106.629869375,194.575996L140.677859375,194.575996Q131.141859375,189.327999,125.445859375,186.703999L129.669859375,178.511997L133.317869375,180.431999Q144.965869375,186.38399900000002,152.005859375,190.28799800000002L147.397859375,198.48L143.493869375,196.175999L143.493869375,203.599998L127.813869375,203.599998ZM155.461869375,212.239998Q158.981859375,212.239998,160.581859375,210.959999Q162.181869375,209.68,162.181869375,206.928001L162.181869375,203.279999Q162.181869375,200.143997,162.757859375,198.28799800000002Q163.333859375,196.431999,164.389859375,195.407997Q165.445859375,194.38399900000002,167.365859375,193.231998L167.365859375,192.848Q165.381869375,191.759998,164.357869375,190.736Q163.333859375,189.711998,162.757859375,187.855999Q162.181869375,186,162.181869375,182.799999L162.181869375,179.151997Q162.181869375,176.399998,160.581859375,175.119999Q158.981859375,173.83999599999999,155.461869375,173.83999599999999L155.461869375,164.239998Q164.613859375,164.239998,168.773869375,167.759998Q172.933869375,171.279999,172.933869375,179.023998L172.933869375,182.16Q172.933869375,184.591999,173.605869375,185.807999Q174.277859375,187.023998,175.877869375,187.472Q177.477859375,187.919998,180.613859375,187.919998L180.613859375,198.16Q177.477859375,198.16,175.877869375,198.608002Q174.277859375,199.05599999999998,173.605869375,200.271999Q172.933869375,201.487999,172.933869375,203.919998L172.933869375,207.05599999999998Q172.933869375,214.799999,168.773869375,218.32Q164.613859375,221.83999599999999,155.461869375,221.83999599999999L155.461869375,212.239998Z"
             fill="#F16B23"
             fill-opacity="1"
             id="path3" />
          <path
             d="M187.525859375,165.135998L212.037869375,165.135998L212.037869375,183.311996L187.525859375,183.311996L187.525859375,165.135998ZM214.341869375,165.135998L238.917879375,165.135998L238.917879375,183.311996L214.341869375,183.311996L214.341869375,165.135998ZM195.589869375,176.143997L203.973859375,176.143997L203.973859375,172.239998L195.589869375,172.239998L195.589869375,176.143997ZM222.405869375,176.143997L230.981869375,176.143997L230.981869375,172.239998L222.405869375,172.239998L222.405869375,176.143997ZM240.133869375,206.608002L238.597869375,206.28799800000002L238.597869375,223.05599999999998L230.533879375,223.05599999999998L230.533879375,220.94400000000002L222.341869375,220.94400000000002L222.341869375,223.05599999999998L214.277859375,223.05599999999998L214.277859375,203.087997L227.525859375,203.087997Q219.461869375,200.143997,213.637859375,195.344002Q211.717869375,197.83999599999999,208.613859375,199.66400099999998Q205.509869375,201.487999,200.517869375,203.087997L212.037869375,203.087997L212.037869375,223.05599999999998L203.973859375,223.05599999999998L203.973859375,220.94400000000002L196.101869375,220.94400000000002L196.101869375,223.05599999999998L188.037869375,223.05599999999998L188.037869375,206.28799800000002L185.477859375,206.863998L183.941859375,198.54399899999999Q190.277859375,197.967999,194.533879375,197.040001Q198.789869375,196.112,201.541869375,194.703999L186.501859375,194.703999L186.501859375,186.767998L207.941859375,186.767998Q208.197879375,185.68,208.389859375,183.952L218.181869375,184.39999799999998Q217.861879375,185.871998,217.541869375,186.767998L224.261869375,186.767998L223.365879375,184.33599900000002L232.581859375,183.88799699999998Q232.645869375,184.015999,233.669859375,186.767998L240.005879375,186.767998L240.005879375,194.703999L226.309879375,194.703999Q231.621869375,196.879997,242.629869375,198.54399899999999L240.133869375,206.608002ZM196.101869375,213.584L203.973859375,213.584L203.973859375,210.192001L196.101869375,210.192001L196.101869375,213.584ZM222.341869375,210.192001L222.341869375,213.584L230.533879375,213.584L230.533879375,210.192001L222.341869375,210.192001Z"
             fill="#292929"
             fill-opacity="1"
             id="path4" />
        </g>
        <g
           id="g5">
          <path
             id="path5"
             d="m 91.980469,250.67969 c -0.253332,1.09333 -0.63706,2.27745 -1.150391,3.55078 -0.513336,1.27333 -1.07612,2.37526 -1.689453,3.30859 v -3.55859 h -3.060547 c 0.346664,-1.26667 0.579218,-2.20698 0.699219,-2.82031 l -1.958985,-0.33985 c -0.200002,1.09334 -0.453099,2.14683 -0.759765,3.16016 h -2.140625 v 7.23242 c 2.406654,-0.01 4.81403,-0.0207 7.220703,-0.0332 v -3.56055 l 1.660156,1.04102 c 0.479996,-0.8 0.945104,-1.71357 1.398438,-2.74024 h 4.160156 c -0.02667,1.16 -0.07201,2.76078 -0.138672,4.80078 -0.0046,0.14125 -0.0092,0.27918 -0.01367,0.41602 0.618098,-0.004 1.235421,-0.009 1.853516,-0.0137 0.0096,-0.29299 0.01929,-0.59282 0.0293,-0.90235 0.08667,-2.68 0.149454,-4.75403 0.189453,-6.2207 h -5.298828 c 0.413334,-1.13333 0.713724,-2.09419 0.90039,-2.88086 z m 72.218751,0.25976 c -0.34667,0.76 -0.78503,1.51815 -1.31836,2.27149 -0.53333,0.75333 -1.11357,1.44984 -1.74024,2.08984 l 1.41993,1.0586 c 0.73333,-0.80001 1.34651,-1.5531 1.83984,-2.25977 h 0.7793 c 0.52001,0.68 0.92738,1.24784 1.2207,1.70117 L 168,255.19922 c -0.66667,-0.86667 -0.94651,-1.23294 -0.83984,-1.09961 h 3.19922 v -1.51953 h -4.97852 c 0.28,-0.50667 0.49821,-0.94078 0.6582,-1.30078 z m -1.63867,5.41993 h -0.83985 v 3.25976 h 1.81836 v 0.5332 c 2.67544,-0.0447 5.35183,-0.0882 8.02735,-0.13086 1.56451,-0.0207 3.12882,-0.0409 4.69336,-0.0605 v -0.88086 h -12.59961 v -1.2793 h 12.69922 v 1.81836 h 1.9414 v -3.25976 h -7.26172 L 170.38086,255 l -1.66016,0.35938 0.45899,1 z m 9.53906,-5.39844 c -0.29334,0.74666 -0.59372,1.40518 -0.90039,1.97851 -0.30666,0.57334 -0.69968,1.18651 -1.17969,1.83985 l 1.67969,0.7207 c 0.29333,-0.41333 0.58752,-0.88039 0.88086,-1.40039 h 0.90039 c 0.46666,0.57333 0.89263,1.14117 1.2793,1.70117 l 1.59961,-0.62109 -0.37891,-0.5 c 0.0267,0.0267 -0.12761,-0.16675 -0.46094,-0.58008 h 3.28125 v -1.51953 h -5.4414 c 0.26666,-0.58667 0.46007,-1.03938 0.58007,-1.35938 z m -108.458985,0.0586 c -0.106666,1.33333 -0.234191,2.52055 -0.380859,3.56055 h -2.060547 v 1.90039 H 63 c -0.267668,1.65954 -0.586192,3.25458 -0.957031,4.78515 0.598305,-0.001 1.196616,-0.003 1.794922,-0.004 0.36759,-1.44245 0.68858,-3.03565 0.96289,-4.78125 h 2.09961 c -0.186666,1.42667 -0.400625,2.64992 -0.640625,3.66992 -0.09109,0.38713 -0.190422,0.75583 -0.296875,1.10742 0.633821,-0.001 1.268524,-0.003 1.902343,-0.004 0.02217,-0.0938 0.04338,-0.18757 0.06445,-0.28321 0.259999,-1.18 0.509999,-2.70364 0.75,-4.57031 v -1.82031 h -3.580079 c 0.186666,-1.44 0.314189,-2.57373 0.38086,-3.40039 z m -31.179687,0.0606 v 3.48047 h -3.980469 v 6.21679 c 0.579862,0.0407 1.160086,0.0793 1.740234,0.11524 v -4.55274 h 2.240235 v 4.67774 c 0.593113,0.0286 1.185732,0.0537 1.779296,0.0742 v -4.75196 h 2.298828 v 4.83204 c 0.580013,0.0185 1.160243,0.0363 1.740235,0.0508 v -6.66211 h -4.039063 v -3.48047 z m 110.939452,0.0996 -1.51953,1.08008 c 0.38667,0.50666 0.82193,1.09309 1.30859,1.75976 0.48667,0.66667 0.86419,1.21396 1.13086,1.64063 l 1.56055,-1.08008 c -0.54667,-0.78667 -1.3738,-1.92039 -2.48047,-3.40039 z m -40.16016,0.12109 v 3.37891 h -1.93945 v 1.83984 h 1.93945 v 3.36133 l -0.74023,0.2793 -1.46094,0.51953 0.043,0.41992 c 1.39656,-0.0118 2.79293,-0.0252 4.18945,-0.0391 0.14442,-0.0547 0.26038,-0.0949 0.34766,-0.1211 0.45333,-0.18666 0.78047,-0.31224 0.98047,-0.3789 v 0.48828 c 2.61842,-0.0273 5.23718,-0.0595 7.85547,-0.0957 1.42832,-0.0196 2.85686,-0.0398 4.28515,-0.0605 v -0.57227 h -12.08007 l -0.0606,-0.80078 -0.0605,-0.95898 c -0.58666,0.25333 -1.09286,0.45914 -1.51953,0.61914 v -2.66016 h 1.75977 v -1.83984 h -1.75977 v -3.37891 z m -75.701168,0.37891 c -0.8,0.21333 -1.78875,0.43349 -2.96875,0.66015 -1.18,0.22667 -2.28388,0.42008 -3.310546,0.58008 l 0.160156,1.74024 c 0.693333,-0.08 1.440234,-0.19318 2.240234,-0.33985 v 2.29883 H 21.179688 V 258.5 h 2.460937 c -0.228203,0.61941 -0.480328,1.2343 -0.755859,1.84375 1.234363,0.10052 2.468232,0.2004 3.703125,0.29492 -0.382363,-0.34433 -0.77158,-0.68455 -1.167969,-1.01953 V 258.5 h 2.419922 v -1.88086 H 25.419922 V 254 c 1.186667,-0.25333 1.987058,-0.44674 2.40039,-0.58008 z m 13.980469,0.16015 v 1.69922 h 7.560547 v 1.58008 h -6.140625 v 6.17774 c 0.626607,0.005 1.254125,0.007 1.880859,0.008 v -1.52539 h 4.259766 v 1.33984 0.16406 c 0.639997,-7e-4 1.27992,-0.001 1.919922,-0.002 v -0.10156 -1.40039 h 4.279297 v 1.49609 c 0.619998,-8.1e-4 1.241327,-0.001 1.861328,-0.002 v -6.1543 H 51 v -1.58008 h 7.560547 v -1.69922 z m 66.441409,0.0195 v 7.12109 h 9.43945 v -7.12109 z m 115.69922,0.041 v 7.47266 c 0.62,-0.009 1.23937,-0.0196 1.85937,-0.0293 v -0.14453 h 8.94141 v 1.36133 h -2.16211 c 0.19146,0.49691 0.0773,1.04379 -0.35938,1.45898 h 2.52149 v 1.40039 h -8.94141 v -0.625 c -0.56477,0.008 -1.19122,0.0151 -1.85937,0.0234 v 0.60156 h -2.41993 v 1.67969 h 17.5 v -1.67969 h -2.40039 v -11.51953 z m -35.75977,0.0801 v 7.8418 c 3.34,-0.0387 6.67953,-0.0766 10.01953,-0.11524 v -7.72656 z m -40.93945,0.0391 v 1.82031 h 9.11914 v 6.43946 c 0.61333,-0.0105 1.22651,-0.0208 1.83984,-0.0312 v -8.22852 z m -23.94141,0.12109 v 1.95899 h 14.20117 v -1.95899 z m -53.339842,0.0801 v 1.89844 h 6.380859 l -3.041016,2.90039 v 2.30078 h -4.138672 v 1.93164 c 2.740561,-0.006 5.480233,-0.0131 8.220703,-0.0215 0.619477,-0.002 1.239895,-0.004 1.859376,-0.006 v -1.9043 h -4 v -1.62109 L 78.5,254.11914 v -1.89844 z m 111.580082,0.31836 v 1.80078 h 2.16015 v 4.32032 h -2.03906 v 1.23828 c 1.88665,-0.0226 3.77153,-0.0445 5.6582,-0.0664 v -1.17187 h -1.8789 v -4.32032 h 2.01953 v -1.80078 z m 21.20117,0.041 v 2 h 6.43945 v 4.99414 c 0.72667,-0.009 1.45302,-0.0181 2.17969,-0.0273 v -4.9668 h 6.51953 v -2 z m -92.74024,0.74023 h 5.89844 v 1.40039 h -5.89844 z m 115.79883,0.19922 h 8.94141 v 1.38086 h -8.94141 z m -35.79883,0.16016 H 192 v 2.20117 h -2.2793 z m 4.09961,0 h 2.32031 v 2.20117 h -2.32031 z m -110.041013,2.2207 h 3.5 V 260 h -3.5 z m 62.720703,0 v 1.71875 h 8.56055 v -1.71875 z m -36.7793,0.17969 h 5.89844 V 257.5 h -5.89844 z m 115.79883,0.2793 h 8.94141 v 1.38085 h -8.94141 z m -180.699218,0.33984 h 4.259766 v 1.60156 h -4.259766 z m 6.179688,0 h 4.279297 v 1.60156 H 51 Z m 90.11914,0.74023 v 1.90039 h 1.78125 v 1.16602 c 0.61334,-0.0104 1.2265,-0.0227 1.83984,-0.0332 v -3.03321 z m -19.83984,0.0215 v 1.93945 h 7.91992 v 1.33203 c 0.7,-0.0112 1.40156,-0.0218 2.10156,-0.0332 v -1.29883 h 7.58008 v -1.93945 z M 189.7207,257.5 H 192 v 2.2207 h -2.2793 z m 4.09961,0 h 2.32031 v 2.2207 h -2.32031 z M 1.1796875,258.59961 v 2.16016 H 17.572266 c 0.271543,-0.28787 0.682582,-0.51299 1.228515,-0.61524 v -1.54492 z m 90.7402345,0.041 -1.439453,1.09961 c 0.3245,0.41576 0.678207,0.89048 1.060547,1.42579 0.769627,-0.004 1.538968,-0.009 2.308593,-0.0137 -0.692998,-0.94041 -1.336595,-1.77699 -1.929687,-2.51172 z m 55.359378,0.89844 v 0.89063 c 2.24666,-0.0386 4.49356,-0.0767 6.74023,-0.11524 v -0.77539 z m -22.17969,1.08008 c -0.0288,0.0591 -0.0581,0.11993 -0.0879,0.17969 0.13227,-0.002 0.26421,-0.004 0.39648,-0.006 z m 9.66016,0.0215 -0.002,0.002 c 0.001,-3e-5 0.002,2e-5 0.004,0 z m 76.32031,2.32032 c -0.14788,0.002 -0.2644,0.003 -0.3457,0.004 -0.61147,0.007 -1.22253,0.0144 -1.83399,0.0215 v 3.17383 h -7.54101 v 1.90039 h 17.32031 v -1.90039 h -7.59961 z m -17.25977,0.20117 c -0.60667,0.007 -1.21364,0.0142 -1.82031,0.0215 v 0.11719 h -4.32031 V 265 H 192 v 1.96094 h -5.30078 v 1.71875 h 12.16016 v -1.71875 h -5.03907 V 265 h 4.45899 v -1.69922 h -4.45899 z m -8.66015,0.10547 c -0.58,0.007 -1.16024,0.0142 -1.74024,0.0215 v 2.39063 c -1,0.24 -1.77984,0.41286 -2.33984,0.51953 l 0.25976,1.86133 c 0.78667,-0.2 1.84946,-0.46125 3.18946,-0.78125 1.33999,-0.32 2.271,-0.52581 2.79101,-0.61914 l -0.0801,-0.91993 -0.0605,-1.01953 c -0.36,0.10667 -1.03287,0.28573 -2.01953,0.53907 z m -19.67969,0.27344 c -0.64667,0.0107 -1.29474,0.0224 -1.94141,0.0332 v 5.90625 h 1.94141 v -0.80078 h 9.35937 v 0.75976 h 1.91993 v -5 h -11.2793 z m -144.369142,0.0898 c -0.09709,0.14816 -0.193682,0.29137 -0.291016,0.42969 l 0.740235,1.91992 c 0.454494,-0.66108 0.895332,-1.39743 1.324219,-2.20703 -0.539184,-0.0439 -1.078035,-0.0873 -1.617188,-0.13086 -0.05197,-0.004 -0.10426,-0.008 -0.15625,-0.0117 z m 136.808592,0.0371 c -0.61333,0.0104 -1.22651,0.0208 -1.83984,0.0312 v 2.38086 c 0,0.36 -0.0329,0.63055 -0.0996,0.81054 -0.0667,0.18001 -0.19729,0.30868 -0.39063,0.38868 -0.19333,0.08 -0.49062,0.12109 -0.89062,0.12109 h -2.23828 l 0.35937,1.74023 h 2.48047 c 0.69333,0 1.22628,-0.0771 1.59961,-0.23046 0.37333,-0.15334 0.63572,-0.40953 0.78906,-0.76954 0.15334,-0.35999 0.23047,-0.85999 0.23047,-1.5 z m -3.90039,0.0664 c -0.57333,0.01 -1.14542,0.0195 -1.71875,0.0293 v 0.55664 H 149 v -0.5 c -0.57333,0.01 -1.14737,0.0214 -1.7207,0.0312 V 266 h 6.74023 z m -130.359374,0.10351 v 5.52149 h 1.759766 v -5.38086 c -0.586734,-0.0462 -1.173156,-0.0931 -1.759766,-0.14063 z m 121.080074,0.0566 c -0.61334,0.0105 -1.2265,0.0208 -1.83984,0.0312 v 2.01367 c 0,0.4 -0.0329,0.71784 -0.0996,0.95117 -0.0667,0.23334 -0.19419,0.45659 -0.38086,0.66993 l 1.14063,1.29883 3.17968,-2.82032 -0.46093,-1.97851 -1.53907,1.40039 z m -7.5039,0.12695 c -0.82341,0.0138 -1.64729,0.0274 -2.47071,0.041 0.14001,0.20704 0.28385,0.42381 0.4336,0.64844 0.83999,1.26 1.52721,2.32898 2.06055,3.20898 l 1.7207,-1.25976 c -0.46874,-0.75455 -1.04995,-1.63416 -1.74414,-2.63868 z m -5.93555,0.0977 c -0.7,0.0113 -1.40156,0.022 -2.10156,0.0332 v 1.72852 c 0,0.37333 -0.036,0.65008 -0.10938,0.83008 -0.0733,0.18 -0.21015,0.30557 -0.41015,0.3789 -0.2,0.0733 -0.50659,0.10938 -0.91992,0.10938 h -2.14063 l 0.38086,2 h 2.46094 c 0.71998,0 1.28278,-0.0783 1.68945,-0.23828 0.40667,-0.16 0.6989,-0.42125 0.87891,-0.78125 0.18,-0.36 0.27148,-0.86 0.27148,-1.5 z m -5.95117,0.0937 c -0.80552,0.0125 -1.6105,0.0249 -2.41602,0.0371 -0.63307,0.9174 -1.27145,1.75442 -1.91406,2.50977 L 122.66016,268 c 0.74666,-0.88 1.49976,-1.91294 2.25976,-3.09961 0.14845,-0.23179 0.29141,-0.46181 0.42969,-0.6875 z m -7.33008,0.11133 c -1.17268,0.0169 -2.34489,0.0327 -3.51758,0.0488 -0.84064,0.0116 -1.68082,0.0226 -2.52148,0.0332 v 2.69336 c -0.58667,-0.16 -1.08357,-0.44604 -1.49024,-0.85938 -0.40666,-0.41333 -0.79039,-1.01411 -1.15039,-1.80078 v -0.002 c -0.58021,0.007 -1.16001,0.0133 -1.74023,0.0195 -0.0321,0.12319 -0.0652,0.24185 -0.0996,0.35352 -0.18667,0.60666 -0.45411,1.17875 -0.80078,1.71875 -0.34667,0.54 -0.83852,1.13768 -1.47852,1.79101 l 1.37891,1.14063 c 0.97333,-1.05334 1.68729,-2.08823 2.14062,-3.10156 0.56,0.95999 1.22977,1.63791 2.00977,2.03124 0.78,0.39334 1.7893,0.58985 3.0293,0.58985 h 4.82031 l 0.36133,-1.67969 h -5.16016 -0.0606 v -2.06055 h 4.2793 z m -85.558592,0.11719 v 4.89843 h 1.779296 v -4.82617 c -0.59356,-0.0199 -1.18618,-0.0443 -1.779296,-0.0723 z m 72.558592,0.043 c -0.59333,0.006 -1.18596,0.0121 -1.7793,0.0176 v 1.95899 c 0,0.32 -0.0709,0.532 -0.21093,0.63867 -0.14,0.10667 -0.41675,0.16016 -0.83008,0.16016 h -1 l 0.33984,1.90039 h 1.20117 c 0.6,0 1.06396,-0.0597 1.39063,-0.17969 0.32667,-0.12 0.55612,-0.31961 0.68945,-0.59961 0.13334,-0.28 0.19922,-0.68117 0.19922,-1.20117 z m -7.074218,0.0605 c -0.618152,0.005 -1.23536,0.009 -1.853515,0.0137 -0.01135,0.32802 -0.02149,0.6291 -0.03125,0.90235 -0.01333,0.46666 -0.07302,0.81239 -0.179688,1.03906 -0.106664,0.22667 -0.287679,0.38094 -0.541015,0.46094 -0.253332,0.08 -0.633957,0.11914 -1.140625,0.11914 h -2.339844 l 0.380859,1.93945 h 2.560547 c 0.746664,0 1.336197,-0.0833 1.769531,-0.25 0.433335,-0.16667 0.75232,-0.43526 0.958985,-0.80859 0.206665,-0.37334 0.324895,-0.89388 0.351562,-1.56055 0.01975,-0.53333 0.04013,-1.15204 0.06445,-1.85547 z m -8.804687,0.0547 c -0.62,0.003 -1.241328,0.007 -1.861328,0.01 v 1.49023 h -3.5 V 264.625 c -0.620002,0.003 -1.239376,0.005 -1.859375,0.008 v 4.56641 h 1.859375 v -1.17969 h 5.361328 z m -14.179687,0.0566 c -0.646666,0.002 -1.294738,0.004 -1.941407,0.006 v 1.31836 c 0,0.46667 -0.08333,0.77325 -0.25,0.91992 -0.166666,0.14667 -0.515497,0.21875 -1.048828,0.21875 h -1.880859 l 0.419922,1.96094 h 2.019531 c 1,0 1.696508,-0.17287 2.089844,-0.51953 0.39333,-0.34667 0.591797,-0.9742 0.591797,-1.88086 z m -7.375,0.0176 c -1.091681,0.002 -2.183708,0.006 -3.275391,0.008 -0.372849,0.50959 -0.809732,1.00535 -1.310547,1.48828 -0.56,0.54 -1.239062,1.12953 -2.039062,1.76953 l 1.398437,1.41993 c 1.600001,-1.32001 2.787216,-2.51962 3.560547,-3.59961 0.920003,0.81333 1.687449,1.50674 2.300781,2.08007 L 69.5,266.2793 Z m -17.089844,0.0273 c -0.674858,7.6e-4 -1.350536,0.001 -2.025391,0.002 -0.033,4e-4 -0.06661,0.002 -0.09961,0.002 -0.142638,0.22059 -0.313218,0.42536 -0.511719,0.61523 -0.316824,-0.17601 -0.63535,-0.37617 -0.955078,-0.60156 -0.91206,0.006 -1.822647,0.006 -2.734375,0.004 0.685878,0.62636 1.375873,1.15962 2.070312,1.59765 -0.546666,0.24 -1.216433,0.47255 -2.009765,0.69922 -0.793333,0.22667 -1.796433,0.47357 -3.009766,0.74024 l 0.71875,1.74023 c 1.453333,-0.32 2.687839,-0.65023 3.701172,-0.99023 1.013334,-0.34 1.859063,-0.72373 2.539063,-1.15039 1.199999,0.51999 2.569374,0.89752 4.109374,1.13085 1.539999,0.23334 3.577993,0.42365 6.111329,0.57032 l 0.378906,-1.86133 c -2.240001,-0.08 -4.065183,-0.20248 -5.478516,-0.36914 -1.413332,-0.16667 -2.614896,-0.41667 -3.601562,-0.75 0.328208,-0.39659 0.594901,-0.85609 0.796875,-1.37891 z m 177.144526,0.49805 c -0.90666,0.50666 -1.91791,1.00047 -3.03124,1.48047 -1.11334,0.48 -2.22342,0.88117 -3.33008,1.20117 l 0.62109,1.63867 c 2.89335,-1.04 5.10535,-1.97216 6.63867,-2.79883 z m 4.41993,0.041 -0.66016,1.53907 c 2.80001,1.09333 4.92558,1.96776 6.37891,2.62109 l 0.78125,-1.67969 -1.70117,-0.66015 c -2.77334,-1.06667 -4.37217,-1.67365 -4.79883,-1.82032 z m -66.58008,0.58008 h 9.35937 v 1.41992 h -9.35937 z" />
        </g>
      </g>
      <g
         transform="matrix(0,1,-1,0,445.005859375,-427.005859375)"
         id="g7">
        <path
           d="M466.005859375,101L466.005859375,136.4L443.685859175,136.4L443.685859175,39.200005000000004L507.165855375,39.200005000000004L507.165855375,60.080002L466.005859375,60.080002L466.005859375,80.120003L504.285858375,80.120003L504.285858375,101L466.005859375,101ZM541.485859375,39.200005000000004L541.485859375,136.4L519.165855375,136.4L519.165855375,39.200005000000004L541.485859375,39.200005000000004ZM579.165859375,39.200005000000004L579.165859375,116.24L622.6058493749999,116.24L622.6058493749999,136.4L556.845859375,136.4L556.845859375,39.200005000000004L579.165859375,39.200005000000004ZM655.9658493750001,39.200005000000004L655.9658493750001,116.24L699.405849375,116.24L699.405849375,136.4L633.645839375,136.4L633.645839375,39.200005000000004L655.9658493750001,39.200005000000004Z"
           fill="#292929"
           fill-opacity="1"
           id="path6" />
      </g>
    </g>
  </g>
  <text
     xml:space="preserve"
     id="text11"
     style="font-size:47.6585px;line-height:0;text-align:start;writing-mode:lr-tb;direction:ltr;white-space:pre;shape-inside:url(#rect11);fill:#292929;fill-opacity:1"
     transform="matrix(1.3562748,0,0,1.3296336,-30.258525,2.6637794)"><tspan
       x="31.123047"
       y="112.64607"
       id="tspan2"><tspan
         style="font-weight:bold;font-family:'Tw Cen MT';-inkscape-font-specification:'Tw Cen MT Bold'"
         id="tspan1">提示詞</tspan></tspan></text>
  <text
     xml:space="preserve"
     style="font-style:normal;font-variant:normal;font-weight:bold;font-stretch:normal;font-size:21.3333px;line-height:0;font-family:'Tw Cen MT';-inkscape-font-specification:'Tw Cen MT Bold';text-align:start;writing-mode:lr-tb;direction:ltr;text-anchor:start;fill:#292929;fill-opacity:1"
     x="1.0260212"
     y="272.23792"
     id="text12"><tspan
       sodipodi:role="line"
       id="tspan12"
       x="1.0260212"
       y="272.23792"
       style="font-size:21.3333px">一種更好的提示詞管理工具</tspan></text>
</svg>
